Patient4_TMGait_0pt5_02_right_44_EMG.mot
version=1
nRows=27
nColumns=33
inDegrees=no
endheader
time	1LAddLong	2LGlutMax	3LGlutMed	4LIliopsoas	5LSemiMemb	6LBicFemLong	7LRecFem	8LVastMed	9LVastLat	10LGasMed	11LTibAnt	12lTibPost	13LPeroneusLong	14LSol	15LExtDigLong	16LFlexDigLong	17RAddLong	18RGlutMax	19RGlutMed	20RIliopsoas	21RSemiMemb	22RBicFemLong	23RRecFem	24RVastMed	25RVastLat	26RGasMed	27RTibAnt	28RTibPost	29RPeroneusLong	30RSol	31RExtDigLong	32RFlexDigLong
57.37	0.005188	-0.058136	-0.011292	0.003357	-0.014343	0.002136	-0.023956	0.011292	0.007172	0.05249	0.008698	0.011139	0.3775	0.18021	-0.11276	0.06424	-0.003662	0.006104	0.076141	0.091553	0.06897	-0.043945	0.22079	-0.13367	-0.046082	0.011139	0.37811	0.002289	0.013885	-0.045471	-0.002747	-0.006714
57.371	0.002441	-0.015869	-0.023499	0.002136	-0.006561	-0.018005	0.001373	0.00824	0.029449	0.22583	0.015259	0.006866	0.25772	0.3775	-0.12955	-0.16968	0.011597	0.056305	0.12741	0.040741	0.066223	-0.046387	0.33325	-0.084076	-0.019226	0.01236	0.15289	-0.001068	-0.046082	-0.037842	-0.002441	-0.005035
57.372	-0.000916	-0.007172	0.010529	-0.004883	0.016937	0.007324	0.014191	0.006256	0.00473	0.26245	0.014801	0.015106	-0.95978	0.34271	-0.11063	0.11856	0.067139	0.032043	0.21729	0.028076	0.048218	-0.039673	0.35172	-0.061951	0.018005	0.00824	0.050659	-0.000305	-0.09491	-0.032349	0	0.000458
57.373	0.002289	0.010376	-0.009308	0.006409	0.007324	0.13458	0.015411	0.012817	-0.000305	0.21942	-0.015717	0.023499	-0.5928	0.30945	0.053558	0.25269	0.10941	0.010223	-0.13031	0.029449	0.046997	-0.041962	0.14282	-0.11246	-0.009613	0.012512	-0.022583	0.001831	-0.079498	-0.036163	-0.00473	0.000763
57.374	-0.004272	-0.006866	-0.013733	-0.00412	-0.00946	0.22079	0.033722	0.010986	-0.009918	0.16678	-0.032043	0.006561	0.45166	0.023804	0.12726	-0.024567	0.11108	-0.015717	-0.32898	-0.05188	0.041656	-0.051117	0.13153	-0.18631	-0.002747	0.013733	-0.02121	0.001373	-0.070496	-0.030518	-0.003357	0.000458
57.375	0.000305	0.045929	-0.030365	0.01709	-0.011902	0.38849	0.043793	0.005188	-0.020447	0.15823	0.010071	0.019531	-0.50186	0.023346	0.053711	-0.12466	0.10712	0.020599	-0.27115	-0.075531	0.031738	-0.064392	0.1831	-0.18601	-0.021973	0.010681	0.088806	-0.000153	-0.053558	-0.018005	-0.004883	0.002441
57.376	-0.002747	0.093536	-0.081177	0.00351	-0.023804	0.49347	0.078735	0.015259	-0.027618	0.15488	0.037079	0.017242	-0.87143	-0.23056	-0.15335	-0.055389	0.11902	0.037384	-0.24216	-0.1062	0.032654	-0.058136	0.20172	-0.21713	-0.039673	-0.002747	-0.012512	-0.00061	0.001831	0.026245	-0.001678	0.00061
57.377	-0.00412	0.10346	0.054932	0.009918	-0.017853	0.40573	0.049133	0.01236	-0.067139	0.13519	-0.022125	0.009766	0.32059	-0.35019	0.2803	-0.009308	0.070648	0.0914	-0.112	-0.040131	0.033875	-0.024719	0.1712	-0.25345	-0.041962	0.004425	-0.009003	0.001221	0.002136	0.055695	-0.001068	-0.009766
57.378	-0.001373	0.15259	0.098572	0.040131	0.011902	0.2124	0.006714	-0.039063	-0.02121	0.18021	-0.11795	0.005188	1.0046	-0.1741	0.036774	-0.014496	0.11581	0.066986	0.00946	0.037537	0.029144	-0.027008	0.085907	-0.21149	-0.020447	0.007172	0.33127	0.002441	0.058136	-0.007782	-0.006104	-0.003815
57.379	-0.00946	0.14603	0.044708	0.025635	0.009766	0.12039	0.008545	-0.010376	-0.032196	0.097198	-0.12314	0.008392	0.60471	-0.17548	0.12787	0.011749	0.12833	0.058289	0.048981	0.090179	0.009766	-0.034332	0.055847	-0.24506	-0.016785	0.013275	0.58227	0.001221	0.094757	-0.11612	-0.004883	0.000305
57.38	0.000153	0.13184	-0.088501	0.012512	0.003815	-0.24918	-0.029297	0.022278	0.010223	0.047913	-0.059509	0.016785	0.12909	-0.11231	0.10056	0.022736	0.019836	0.034485	0.02243	-0.001984	0.01236	-0.020752	0.13046	-0.19104	-0.010986	0.005188	0.48111	-0.000305	0.019226	-0.13351	0.001526	-0.006714
57.381	0.004425	0.12421	0.06424	-0.002899	-0.005646	-0.36011	-0.02533	0.030823	0.049591	-0.00824	-0.051422	0.02182	0.29785	0.088806	-0.17914	0.019989	-0.056763	0.035706	0.12528	-0.16144	0.023193	-0.022583	0.16785	-0.10193	0.03067	0.000153	0.25497	0.002289	-0.024261	-0.12863	-0.003052	-0.013123
57.382	0.017242	0.11276	0.19363	-0.013885	0.014191	-0.63095	-0.19241	0.017242	0.05722	-0.021057	0.10498	0.017853	-0.060883	-0.024109	-0.26321	0.008698	-0.11658	0.00885	0.028534	-0.21881	0.019684	-0.024109	0.13992	-0.070801	0.018158	0.010376	-0.36514	0.002899	0.066528	-0.17899	-0.003815	-0.002899
57.383	0.018616	0.10468	0.11612	-0.004883	0.018005	-0.1091	-0.19486	0.007782	0.17166	-0.012512	0.25299	0.022736	-0.056	0.007477	-0.21393	0.002899	-0.1236	0.041351	0.005798	-0.17303	0.028992	-0.033264	-0.063019	-0.080261	0.005341	0.014191	-0.67062	0.001678	-0.066528	-0.12268	-0.005493	-0.008087
57.384	0.006561	0.14282	0.015717	-0.011749	-0.005798	0.215	0.000153	-0.016937	0.21194	-0.0354	0.31021	0.027466	-0.10635	0.13001	-0.13916	-0.005646	-0.11963	0.066528	0.16998	-0.10605	0.048065	-0.03418	0.059967	-0.06073	0.016327	0.024109	-0.22369	0.002747	-0.16693	-0.091705	-0.005035	0.000305
57.385	0.02243	0.17807	0.068665	-0.001831	-0.022278	0.29846	0.028229	-0.024872	0.12589	0.056	0.38986	0.010071	-0.38818	0.052338	0.37582	-0.010986	-0.11414	0.075836	0.16266	-0.025024	0.053711	-0.016479	0.18158	-0.001526	0.002747	0.022736	0.20706	0.003662	-0.030975	-0.10422	-0.001831	0.001221
57.386	0.018005	0.12802	0.068359	-0.000305	-0.020752	0.23148	-0.023956	-0.030823	0.048676	0.058441	0.076447	0.014954	-0.25055	0.13397	-0.15167	0.010834	-0.11154	0.071716	-0.1236	-0.027924	0.069733	-0.003357	0.26642	0.044098	0.014648	0.016327	0.29755	-0.003815	-0.11322	0.024109	-0.003052	-0.000305
57.387	0.012054	0.13763	0.044098	0.007172	-0.000305	0.056458	-0.04776	-0.03006	-0.033264	-0.010986	-0.011902	0.022125	-0.20401	0.19409	-0.15259	0.013275	-0.0914	0.046997	-0.12024	-0.082703	0.084991	-0.000458	0.18707	0.0177	0.001831	0.007935	0.17258	0.006714	-0.22492	0.12436	-0.003967	-0.000458
57.388	0.010223	0.11353	-0.031738	0.009613	0.000458	-0.26398	-0.10941	-0.012207	-0.032654	0.014648	-0.13611	0.026245	0.11414	0.11673	-0.11383	0.016632	-0.082397	0.040588	0.20142	-0.061035	0.06546	-0.005188	0.16113	-0.050812	-0.001984	0.016022	0.043182	0.001526	-0.13153	-0.029297	-0.012054	0.001373
57.389	0.004272	0.14267	0.043793	0.006104	0.008087	-0.21408	-0.081787	-0.011292	-0.048065	-0.018616	-0.17609	0.016785	0.44022	0.061493	0.037842	0.010529	-0.083618	0.020294	0.058899	0.022888	0.069427	-0.014038	0.027924	-0.092926	0.005341	0.015869	-0.040436	0.006409	0.032806	-0.13473	-0.002594	0.00061
57.39	-0.001526	0.13229	0.052795	-0.004578	0.015106	-0.24994	-0.11597	-0.005188	-0.070801	0.038605	-0.17288	0.023956	0.5983	0.066376	0.14847	0.005035	-0.065002	0.006561	0.044403	0.19272	0.065918	-0.00412	0.075226	-0.10727	-0.002594	0.018311	-0.086365	0.004272	0.21576	-0.17899	-0.004272	0.006104
57.391	-0.007477	0.14084	-0.003662	0.011292	0.028992	-0.3183	-0.086517	-0.002441	-0.011292	0.076752	-0.11215	0.02594	0.21912	-0.009766	-0.00412	0.010529	-0.035706	0.020142	0.14435	0.10941	0.065613	0.003967	0.17136	-0.073547	0.005035	0.006714	-0.059052	0.003662	0.17929	-0.090027	-0.00061	0.000305
57.392	-0.013428	0.11673	-0.043182	0.000916	0.014038	-0.22842	-0.038452	0.006104	0.011444	0.057831	-0.063324	0.026703	-0.097198	-0.040741	-0.074005	0.00061	-0.004425	0.055542	0.19592	-0.015106	0.055542	0.003815	0.15579	-0.086365	0.0177	0.003204	-0.049286	0.003662	0.17807	-0.037231	-0.010071	0.002136
57.393	-0.003815	0.12268	0.02121	0.005493	0.029449	-0.23987	-0.01297	0.00824	0.071564	0.066071	-0.001373	0.031891	-0.56076	-0.15305	-0.16281	-0.002747	0.022125	0.052032	0.10223	0.008698	0.048828	-0.00824	0.2179	-0.053253	0.013733	0.005951	-0.29465	0.000763	0.17822	-0.001526	-0.003052	0.004883
57.394	-0.003815	0.083771	-0.038757	0.005951	0.028992	-0.12985	0.056305	0.000458	0.11246	0.013733	-0.050201	0.027161	-0.35065	-0.15488	-0.14313	-0.000153	0.047913	0.044556	0.070038	0	0.050201	-0.002899	0.31647	0.009308	-0.005188	0.00824	-0.66498	0.002747	0.11215	0.066071	-0.003052	0.004578
57.395	0.001831	0.054474	-0.083313	0.029144	0.019684	0.05188	0.026093	-0.002289	0.10239	-0.069733	-0.022125	0.033722	-0.099792	-0.020905	0.044708	-0.033112	0.077057	-0.012512	0.034637	0.035553	0.034332	-0.004578	0.44739	0.020752	0.003052	0.014496	-0.6749	0.000153	0.079346	0.023193	-0.009155	0.001831
57.396	0.005951	0.04837	0.00824	0.014191	-0.007019	0.056305	0.010986	0.001526	0.085297	-0.11749	-0.008392	0.036926	-0.15549	0.020752	0.22766	-0.011444	0.058136	0.007172	-0.096436	0.10101	0.041046	-0.011597	0.43915	-0.01297	-0.007935	0.01236	-0.34637	0.003052	0.013428	-0.001984	-0.004272	-0.000916
